<svg xmlns="http://www.w3.org/2000/svg" width="30.375" height="27" viewBox="0 0 30.375 27"><path d="M12.758,13.487l1.335-8.859H7.151l-2.9,7.594a2.662,2.662,0,0,0-.137.844c0,1.863,1.941,3.375,4.339,3.375,2.211,0,4.038-1.289,4.306-2.953ZM19.3,16.44c2.4,0,4.339-1.512,4.339-3.375,0-.069-.005-.138-.008-.2l-.859-8.233H15.829l-.861,8.227c0,.069-.007.138-.007.211,0,1.863,1.942,3.375,4.339,3.375ZM27.738,18.2v6.672H10.863V18.215a7.1,7.1,0,0,1-2.411.419,6.957,6.957,0,0,1-.964-.083V29.265a2.368,2.368,0,0,0,2.359,2.362h18.9a2.371,2.371,0,0,0,2.362-2.362V18.553a7.25,7.25,0,0,1-.964.083A7.013,7.013,0,0,1,27.738,18.2Zm6.615-5.984-2.9-7.594H24.508l1.333,8.846c.26,1.671,2.087,2.967,4.308,2.967,2.4,0,4.339-1.512,4.339-3.375A2.71,2.71,0,0,0,34.353,12.221Z" transform="translate(-4.113 -4.627)" fill="#444"/></svg>